0
SECTION
2
HEADER
9
$INSUNITS
70
4
9
$ACADVER
1
AC1014
9
$HANDSEED
5
FFFF
0
ENDSEC
0
SECTION
2
TABLES
0
TABLE
2
VPORT
5
8
100
AcDbSymbolTable
0
ENDTAB
0
TABLE
2
LTYPE
5
5
100
AcDbSymbolTable
0
LTYPE
5
14
100
AcDbSymbolTableRecord
100
AcDbLinetypeTableRecord
2
BYBLOCK
70
0
0
LTYPE
5
15
100
AcDbSymbolTableRecord
100
AcDbLinetypeTableRecord
2
BYLAYER
70
0
0
ENDTAB
0
TABLE
2
LAYER
5
2
100
AcDbSymbolTable
70
2
0
LAYER
5
50
100
AcDbSymbolTableRecord
100
AcDbLayerTableRecord
2
0
70
0
6
CONTINUOUS
0
ENDTAB
0
TABLE
2
STYLE
5
3
100
AcDbSymbolTable
70
1
0
STYLE
5
11
100
AcDbSymbolTableRecord
100
AcDbTextStyleTableRecord
2
STANDARD
70
0
0
ENDTAB
0
TABLE
2
VIEW
5
6
100
AcDbSymbolTable
70
0
0
ENDTAB
0
TABLE
2
UCS
5
7
100
AcDbSymbolTable
70
0
0
ENDTAB
0
TABLE
2
APPID
5
9
100
AcDbSymbolTable
70
2
0
APPID
5
12
100
AcDbSymbolTableRecord
100
AcDbRegAppTableRecord
2
ACAD
70
0
0
ENDTAB
0
TABLE
2
DIMSTYLE
5
A
100
AcDbSymbolTable
70
1
0
ENDTAB
0
TABLE
2
BLOCK_RECORD
5
1
100
AcDbSymbolTable
70
1
0
BLOCK_RECORD
5
1F
100
AcDbSymbolTableRecord
100
AcDbBlockTableRecord
2
*MODEL_SPACE
0
BLOCK_RECORD
5
1B
100
AcDbSymbolTableRecord
100
AcDbBlockTableRecord
2
*PAPER_SPACE
0
ENDTAB
0
ENDSEC
0
SECTION
2
BLOCKS
0
BLOCK
5
20
100
AcDbEntity
100
AcDbBlockBegin
2
*MODEL_SPACE
0
ENDBLK
5
21
100
AcDbEntity
100
AcDbBlockEnd
0
BLOCK
5
1C
100
AcDbEntity
100
AcDbBlockBegin
2
*PAPER_SPACE
0
ENDBLK
5
1D
100
AcDbEntity
100
AcDbBlockEnd
0
ENDSEC
0
SECTION
2
ENTITIES
0
LWPOLYLINE
5
100
100
AcDbEntity
8
0
100
AcDbPolyline
90
18
70
1
43
0.0
10
-103.21407592665317
20
-24.561967775389881
10
-28.914043270031648
20
-67.2863790331009
42
0.12381958539237217
10
-27.505817239758301
20
-67.684420089769702
42
-0.11617413408029924
10
18.022314912898516
20
-79.815117698229869
42
0.23850174194321261
10
20.729552847801358
20
-79.878614539594707
42
0.044250383670879571
10
35.547272684339326
20
-71.131875114446714
42
0.24229357332515797
10
48.074893032059705
20
-46.692683341142001
10
47.925302214166194
20
39.01523835375329
42
0.12381958539238432
10
47.56590286585363
20
40.43381839857517
42
-0.11617413462186388
10
35.307329077074257
20
85.927686453390479
42
0.2385017437535224
10
34.008699975447868
20
88.303971714210007
42
0.044250383416764759
10
19.024941564843928
20
96.763123694819981
42
0.24229357234601734
10
-8.4038294315724382
20
95.392765232448539
10
-82.554271648322498
20
52.409254859812023
42
0.12381958539237849
10
-83.603098330283785
20
51.388715871659201
42
-0.11617413354992039
10
-116.8726565184035
20
18.025545758270649
42
0.23850174189963946
10
-118.28126535865647
20
15.712757350783006
42
0.044250384829014493
10
-118.11522665718624
20
-1.4931346142474311
42
0.24229357159111034
0
LWPOLYLINE
5
101
100
AcDbEntity
8
0
100
AcDbPolyline
90
14
70
1
43
0.0
10
-81.548579795294117
20
-29.543051235555211
10
-81.697775627120137
20
-12.446950613699226
42
0.22189881809968295
10
-82.791229095659773
20
-10.156771990593914
10
-91.12595503205759
20
-3.2970429292238683
42
-0.46719274017194207
10
-91.163006544405391
20
1.3046754283609707
42
-0.24167036796415159
10
-48.454497272268995
20
11.326312003585661
42
-0.34817959740955928
10
-46.178833054165295
20
8.3754718745547585
42
0.26961579186181955
10
-33.831398919750399
20
-13.517066709161522
42
-0.22124605007682135
10
-32.392328887034267
20
-15.599212428028366
42
0.15666508609218649
10
-12.855506608455585
20
-53.117990445336154
42
-0.49214063939016062
10
-13.442528588203162
20
-57.835817371884204
10
-22.744458647078641
20
-63.315073225382875
42
-0.26982070779319051
10
-25.76253691023436
20
-63.330876065255595
10
-80.044157203696727
20
-32.117561801037127
42
-0.26607942671670209
0
LWPOLYLINE
5
102
100
AcDbEntity
8
0
100
AcDbPolyline
90
14
70
1
43
0.0
10
41.555889780760197
20
-25.439271292315162
10
26.824830655890093
20
-34.116528746121197
42
0.22189881809969897
10
25.388204523346882
20
-36.208576539285744
10
23.614867801355778
20
-46.856525824533009
42
-0.46719273770603986
10
19.648188581679499
20
-49.189472562425394
42
-0.24167036890861876
10
-10.385058222283297
20
-17.213636941005493
42
-0.34817960215687654
10
-8.9673877883578967
20
-13.767433821888435
42
0.2696157983167522
10
3.8183899839657451
20
7.8720275450118553
42
-0.22124605142631454
10
4.902046039731216
20
10.159371633100971
42
0.15666508442334076
10
27.625849435683953
20
45.838144756401832
42
-0.49214063939023184
10
32.005118394607223
20
47.688682272634239
10
41.401258187008153
20
42.372602464171727
42
-0.26982070779327222
10
42.923982979368191
20
39.766771437604987
10
43.033270036980376
20
-22.849147827223245
42
-0.26607942671664203
0
LWPOLYLINE
5
103
100
AcDbEntity
8
0
100
AcDbPolyline
90
14
70
1
43
0.0
10
-23.550322689655658
20
79.120436708335731
10
-8.6700675659515358
20
70.701593911651827
42
0.22189881809968812
10
-6.1399879648686184
20
70.503463081710478
10
3.9680748318432868
20
74.29168301984015
42
-0.46719273874144157
10
7.9718055842093838
20
72.022911405849868
42
-0.24167036703550682
10
-4.7034568759232869
20
30.02543919259395
42
-0.34817960034067275
10
-8.3967915221155121
20
29.530076219479291
42
0.26961579684626563
10
-33.530003559603323
20
29.783153706398156
42
-0.22124605360419303
10
-36.052729697375391
20
29.577955332461265
42
0.15666508535301815
10
-78.313355531418878
20
31.417959869399745
42
-0.49214063939015307
10
-82.105602510593656
20
34.285249279715316
10
-82.199812244120309
20
45.080584941676193
42
-0.26982070779326101
10
-80.704458773324149
20
47.702218808115774
10
-26.532125537472339
20
79.104823808725882
42
-0.26607942671660673
0
CIRCLE
5
104
100
AcDbEntity
8
0
100
AcDbCircle
10
-21.181004047433987
20
8.0460381508203227
30
-1.6383117085183585e-10
40
11.500000000000002
210
-5.350496416267116e-20
220
6.1446719367289419e-20
230
1
0
CIRCLE
5
105
100
AcDbEntity
8
0
100
AcDbCircle
10
14.379425885935424
20
57.506042742686034
30
3.4403362381141278e-07
40
1.7000000000000002
210
-5.350496416267116e-20
220
6.1446719379911193e-20
230
1
0
CIRCLE
5
106
100
AcDbEntity
8
0
100
AcDbCircle
10
12.453856111341732
20
85.009245939700548
30
3.4403373705416129e-07
40
1.25
210
-5.3504964150049374e-20
220
6.1446719379911181e-20
230
1
0
CIRCLE
5
107
100
AcDbEntity
8
0
100
AcDbCircle
10
28.481433645901735
20
75.941279394473739
30
3.4403376814040598e-07
40
1.25
210
-5.3504964150049374e-20
220
6.1446719379911181e-20
230
1
0
CIRCLE
5
108
100
AcDbEntity
8
0
100
AcDbCircle
10
12.603813211749344
20
50.06452675233939
30
3.4403358828427599e-07
40
1.7000000000000002
210
-5.350496416267116e-20
220
6.1446719379911193e-20
230
1
0
CIRCLE
5
109
100
AcDbEntity
8
0
100
AcDbCircle
10
23.385236433371706
20
49.575382483237362
30
3.4403363047275093e-07
40
1.7000000000000002
210
-5.350496416267116e-20
220
6.1446719379911193e-20
230
1
0
CIRCLE
5
110
100
AcDbEntity
8
0
100
AcDbCircle
10
24.642579739018569
20
57.821272396877639
30
3.4403361937052068e-07
40
1.7000000000000002
210
-5.350496416267116e-20
220
6.1446719379911193e-20
230
1
0
CIRCLE
5
111
100
AcDbEntity
8
0
100
AcDbCircle
10
-36.277895897701598
20
-0.70532445796500198
30
3.4403363269319698e-07
40
2.8500000000000005
210
-5.350496416267116e-20
220
6.1446719367289419e-20
230
1
0
CIRCLE
5
112
100
AcDbEntity
8
0
100
AcDbCircle
10
-21.211460459237408
20
25.496011315731533
30
3.4403359494561414e-07
40
2.8500000000000005
210
-5.350496416267116e-20
220
6.1446719367289419e-20
230
1
0
CIRCLE
5
113
100
AcDbEntity
8
0
100
AcDbCircle
10
-6.0536557853614603
20
-0.65257240530572247
30
3.4403358606382994e-07
40
2.8500000000000005
210
-5.350496416267116e-20
220
6.1446719367289419e-20
230
1
0
CIRCLE
5
114
100
AcDbEntity
8
0
100
AcDbCircle
10
-46.340664496910989
20
27.390511377310869
30
3.4403358162293785e-07
40
1.7000000000000002
210
-5.3504964150049386e-20
220
6.1446719379911193e-20
230
1
0
CIRCLE
5
115
100
AcDbEntity
8
0
100
AcDbCircle
10
-54.630440540308591
20
28.641403432637844
30
3.4403358606382994e-07
40
1.7000000000000002
210
-5.3504964150049386e-20
220
6.1446719379911193e-20
230
1
0
CIRCLE
5
116
100
AcDbEntity
8
0
100
AcDbCircle
10
-63.004247135775273
20
28.803571908939496
30
3.4403366377944167e-07
40
1.7000000000000002
210
-5.3504964150049386e-20
220
6.1446719379911193e-20
230
1
0
CIRCLE
5
117
100
AcDbEntity
8
0
100
AcDbCircle
10
-71.318199158208955
20
27.87603885723529
30
3.4403362603185883e-07
40
1.7000000000000002
210
-5.3504964150049386e-20
220
6.1446719379911193e-20
230
1
0
CIRCLE
5
118
100
AcDbEntity
8
0
100
AcDbCircle
10
-79.429591482221269
20
25.876862392155804
30
3.4403358162293785e-07
40
1.7000000000000002
210
-5.3504964150049386e-20
220
6.1446719379911193e-20
230
1
0
CIRCLE
5
119
100
AcDbEntity
8
0
100
AcDbCircle
10
-87.199413277067364
20
22.842808679303825
30
3.4403364601587327e-07
40
1.7000000000000002
210
-5.3504964150049386e-20
220
6.1446719379911193e-20
230
1
0
CIRCLE
5
120
100
AcDbEntity
8
0
100
AcDbCircle
10
-88.775093240695469
20
10.946707283496657
30
3.4403363047275093e-07
40
1.7000000000000002
210
-5.3504964150049386e-20
220
6.1446719379911193e-20
230
1
0
CIRCLE
5
121
100
AcDbEntity
8
0
100
AcDbCircle
10
-81.794839461969559
20
14.112271546681487
30
3.4403362825230488e-07
40
1.7000000000000002
210
-5.3504964150049386e-20
220
6.1446719379911193e-20
230
1
0
CIRCLE
5
122
100
AcDbEntity
8
0
100
AcDbCircle
10
-74.462491234568034
20
16.295303858727763
30
3.4403364379542722e-07
40
1.7000000000000002
210
-5.3504964150049386e-20
220
6.1446719379911193e-20
230
1
0
CIRCLE
5
123
100
AcDbEntity
8
0
100
AcDbCircle
10
-66.913593115325497
20
17.458220006980021
30
3.4403366155899562e-07
40
1.7000000000000002
210
-5.3504964150049386e-20
220
6.1446719379911193e-20
230
1
0
CIRCLE
5
124
100
AcDbEntity
8
0
100
AcDbCircle
10
-59.287446203595096
20
17.581914564736625
30
3.4403366377944167e-07
40
1.7000000000000002
210
-5.3504964150049386e-20
220
6.1446719379911193e-20
230
1
0
CIRCLE
5
125
100
AcDbEntity
8
0
100
AcDbCircle
10
-51.724608992180173
20
16.666093563789914
30
3.4403365267721142e-07
40
1.7000000000000002
210
-5.3504964150049386e-20
220
6.1446719379911193e-20
230
1
0
CIRCLE
5
126
100
AcDbEntity
8
0
100
AcDbCircle
10
21.060877876772423
20
41.551122438040352
30
3.4403359272516809e-07
40
1.7000000000000002
210
-5.350496416267116e-20
220
6.1446719379911193e-20
230
1
0
CIRCLE
5
127
100
AcDbEntity
8
0
100
AcDbCircle
10
9.8364790789852652
20
42.945531136368501
30
3.4403362381141278e-07
40
1.7000000000000002
210
-5.350496416267116e-20
220
6.1446719379911193e-20
230
1
0
CIRCLE
5
128
100
AcDbEntity
8
0
100
AcDbCircle
10
17.707169051181488
20
33.887262254915825
30
3.4403363047275093e-07
40
1.7000000000000002
210
-5.350496416267116e-20
220
6.1446719379911193e-20
230
1
0
CIRCLE
5
129
100
AcDbEntity
8
0
100
AcDbCircle
10
6.1305282524475135
20
36.279246898939839
30
3.4403364823631932e-07
40
1.7000000000000002
210
-5.350496416267116e-20
220
6.1446719379911193e-20
230
1
0
CIRCLE
5
130
100
AcDbEntity
8
0
100
AcDbCircle
10
13.379823733278267
20
26.716417255014768
30
3.4403366155899562e-07
40
1.7000000000000002
210
-5.350496416267116e-20
220
6.1446719379911193e-20
230
1
0
CIRCLE
5
131
100
AcDbEntity
8
0
100
AcDbCircle
10
1.5559853946006719
20
30.187548249641782
30
3.4403358162293785e-07
40
1.7000000000000002
210
-5.350496416267116e-20
220
6.1446719379911193e-20
230
1
0
CIRCLE
5
132
100
AcDbEntity
8
0
100
AcDbCircle
10
8.1516314142730284
20
20.162706637412722
30
3.4403359938650624e-07
40
1.7000000000000002
210
-5.350496416267116e-20
220
6.1446719379911193e-20
230
1
0
CIRCLE
5
133
100
AcDbEntity
8
0
100
AcDbCircle
10
10.103987392325919
20
-51.942494802553441
30
3.4403366822033377e-07
40
1.7000000000000004
210
-5.3504964150049386e-20
220
6.1446719379911193e-20
230
1
0
CIRCLE
5
134
100
AcDbEntity
8
0
100
AcDbCircle
10
-0.98617860425376236
20
-56.525966623721331
30
3.4403364601587327e-07
40
1.7000000000000004
210
-5.3504964150049386e-20
220
6.1446719379911193e-20
230
1
0
CIRCLE
5
135
100
AcDbEntity
8
0
100
AcDbCircle
10
3.8724014337326818
20
-47.480199836906642
30
3.4403365711810352e-07
40
1.7000000000000004
210
-5.3504964150049386e-20
220
6.1446719379911193e-20
230
1
0
CIRCLE
5
136
100
AcDbEntity
8
0
100
AcDbCircle
10
-7.4986570934514063
20
-51.314130422933495
30
3.4403360160695229e-07
40
1.7000000000000004
210
-5.3504964150049386e-20
220
6.1446719379911193e-20
230
1
0
CIRCLE
5
137
100
AcDbEntity
8
0
100
AcDbCircle
10
-1.684334119482962
20
-42.221716158606846
30
3.440335794024918e-07
40
1.7000000000000004
210
-5.3504964150049386e-20
220
6.1446719379911193e-20
230
1
0
CIRCLE
5
138
100
AcDbEntity
8
0
100
AcDbCircle
10
-13.28569086086488
20
-45.289046842815139
30
3.4403359272516809e-07
40
1.7000000000000004
210
-5.3504964150049386e-20
220
6.1446719379911193e-20
230
1
0
CIRCLE
5
139
100
AcDbEntity
8
0
100
AcDbCircle
10
-6.4658981059618714
20
-36.265636690889025
30
3.4403362825230488e-07
40
1.7000000000000004
210
-5.3504964150049386e-20
220
6.1446719379911193e-20
230
1
0
CIRCLE
5
140
100
AcDbEntity
8
0
100
AcDbCircle
10
-18.245934057707601
20
-38.552719711394943
30
3.4403361492962858e-07
40
1.7000000000000004
210
-5.3504964150049386e-20
220
6.1446719379911193e-20
230
1
0
CIRCLE
5
141
100
AcDbEntity
8
0
100
AcDbCircle
10
-10.386094191154305
20
-29.72304701121594
30
3.4403359716606019e-07
40
1.7000000000000004
210
-5.3504964150049386e-20
220
6.1446719379911193e-20
230
1
0
CIRCLE
5
142
100
AcDbEntity
8
0
100
AcDbCircle
10
-22.292395335271181
20
-31.219706235192284
30
3.4403366377944167e-07
40
1.7000000000000004
210
-5.3504964150049386e-20
220
6.1446719379911193e-20
230
1
0
CIRCLE
5
143
100
AcDbEntity
8
0
100
AcDbCircle
10
-13.374388544722624
20
-22.715527360970782
30
3.4403357718204575e-07
40
1.7000000000000004
210
-5.3504964150049386e-20
220
6.1446719379911193e-20
230
1
0
CIRCLE
5
144
100
AcDbEntity
8
0
100
AcDbCircle
10
-25.353979059663985
20
-23.415103562262765
30
3.4403362825230488e-07
40
1.7000000000000004
210
-5.3504964150049386e-20
220
6.1446719379911193e-20
230
1
0
CIRCLE
5
145
100
AcDbEntity
8
0
100
AcDbCircle
10
23.677858274361405
20
86.057995189475918
30
3.4403367488167191e-07
40
1.25
210
-5.350496416267116e-20
220
6.1446719379911193e-20
230
1
0
CIRCLE
5
146
100
AcDbEntity
8
0
100
AcDbCircle
10
23.949900360426941
20
-69.808854363929385
30
3.4403368820434821e-07
40
1.25
210
-5.3504964162671148e-20
220
6.1446719379911181e-20
230
1
0
CIRCLE
5
147
100
AcDbEntity
8
0
100
AcDbCircle
10
-104.81122604137573
20
17.107350054271908
30
3.4403367488167191e-07
40
1.25
210
-5.3504964137427611e-20
220
6.1446719405154742e-20
230
1
0
CIRCLE
5
148
100
AcDbEntity
8
0
100
AcDbCircle
10
-104.6505266643766
20
-1.306922358557312
30
3.4403365489765747e-07
40
1.25
210
-5.3504964137427611e-20
220
6.1446719405154742e-20
230
1
0
CIRCLE
5
149
100
AcDbEntity
8
0
100
AcDbCircle
10
-111.17077117967105
20
7.8889739390437086
30
3.4403364823631932e-07
40
1.25
210
-5.3504964137427611e-20
220
6.1446719405154742e-20
230
1
0
CIRCLE
5
150
100
AcDbEntity
8
0
100
AcDbCircle
10
28.653657907070862
20
-59.56420882599744
30
3.4403362159096673e-07
40
1.25
210
-5.3504964162671148e-20
220
6.1446719379911181e-20
230
1
0
CIRCLE
5
151
100
AcDbEntity
8
0
100
AcDbCircle
10
12.786779893852964
20
-68.910514775265099
30
3.4403366599988772e-07
40
1.25
210
-5.3504964162671148e-20
220
6.1446719379911181e-20
230
1
0
CIRCLE
5
152
100
AcDbEntity
8
0
100
AcDbCircle
10
15.128093706068233
20
65.133901971517702
30
3.4403361270918253e-07
40
1.7000000000000002
210
-5.350496416267116e-20
220
6.1446719379911193e-20
230
1
0
ENDSEC
0
SECTION
2
OBJECTS
0
DICTIONARY
5
C
100
AcDbDictionary
3
ACAD_GROUP
350
D
3
ACAD_MLINESTYLE
350
17
0
DICTIONARY
5
D
100
AcDbDictionary
0
DICTIONARY
5
1A
330
C
100
AcDbDictionary
0
DICTIONARY
5
17
100
AcDbDictionary
0
ENDSEC
0
EOF
