0
SECTION
2
HEADER
9
$INSUNITS
70
4
9
$ACADVER
1
AC1014
9
$HANDSEED
5
FFFF
0
ENDSEC
0
SECTION
2
TABLES
0
TABLE
2
VPORT
5
8
100
AcDbSymbolTable
0
ENDTAB
0
TABLE
2
LTYPE
5
5
100
AcDbSymbolTable
0
LTYPE
5
14
100
AcDbSymbolTableRecord
100
AcDbLinetypeTableRecord
2
BYBLOCK
70
0
0
LTYPE
5
15
100
AcDbSymbolTableRecord
100
AcDbLinetypeTableRecord
2
BYLAYER
70
0
0
ENDTAB
0
TABLE
2
LAYER
5
2
100
AcDbSymbolTable
70
2
0
LAYER
5
50
100
AcDbSymbolTableRecord
100
AcDbLayerTableRecord
2
0
70
0
6
CONTINUOUS
0
ENDTAB
0
TABLE
2
STYLE
5
3
100
AcDbSymbolTable
70
1
0
STYLE
5
11
100
AcDbSymbolTableRecord
100
AcDbTextStyleTableRecord
2
STANDARD
70
0
0
ENDTAB
0
TABLE
2
VIEW
5
6
100
AcDbSymbolTable
70
0
0
ENDTAB
0
TABLE
2
UCS
5
7
100
AcDbSymbolTable
70
0
0
ENDTAB
0
TABLE
2
APPID
5
9
100
AcDbSymbolTable
70
2
0
APPID
5
12
100
AcDbSymbolTableRecord
100
AcDbRegAppTableRecord
2
ACAD
70
0
0
ENDTAB
0
TABLE
2
DIMSTYLE
5
A
100
AcDbSymbolTable
70
1
0
ENDTAB
0
TABLE
2
BLOCK_RECORD
5
1
100
AcDbSymbolTable
70
1
0
BLOCK_RECORD
5
1F
100
AcDbSymbolTableRecord
100
AcDbBlockTableRecord
2
*MODEL_SPACE
0
BLOCK_RECORD
5
1B
100
AcDbSymbolTableRecord
100
AcDbBlockTableRecord
2
*PAPER_SPACE
0
ENDTAB
0
ENDSEC
0
SECTION
2
BLOCKS
0
BLOCK
5
20
100
AcDbEntity
100
AcDbBlockBegin
2
*MODEL_SPACE
0
ENDBLK
5
21
100
AcDbEntity
100
AcDbBlockEnd
0
BLOCK
5
1C
100
AcDbEntity
100
AcDbBlockBegin
2
*PAPER_SPACE
0
ENDBLK
5
1D
100
AcDbEntity
100
AcDbBlockEnd
0
ENDSEC
0
SECTION
2
ENTITIES
0
LWPOLYLINE
5
100
100
AcDbEntity
8
0
100
AcDbPolyline
90
18
70
1
43
0.0
10
-54.829937937447269
20
-83.598506362646475
10
201.49843967926654
20
-83.598506362646475
10
201.49843967926654
20
-0.048504845393406167
10
180.99843967926751
20
-0.04850484539340353
10
180.99843967926751
20
20.951495154606548
10
201.49843967926654
20
20.951495154606548
10
201.49843967926654
20
100.40149363735004
10
-54.829937937447269
20
100.40149363735004
10
-54.829937937447269
20
95.40149363735074
10
-61.001604604114171
20
95.401493637350626
42
0.41421356237309503
10
-63.001604604114185
20
93.40149363735064
10
-63.001604604114178
20
87.229826970683831
10
-67.958228988492579
20
87.229826970683831
10
-67.958228988492579
20
-70.426839695979965
10
-63.001604604114178
20
-70.426839695979965
10
-63.001604604114178
20
-76.598506362646873
42
0.41421356237309503
10
-61.001604604114171
20
-78.598506362646873
10
-54.829937937447269
20
-78.598506362646859
0
LWPOLYLINE
5
101
100
AcDbEntity
8
0
100
AcDbPolyline
90
8
70
1
43
0.0
10
47.301351110482834
20
-64.098506362646873
10
58.301351110482841
20
-64.09850636264683
42
-0.41421356237309503
10
60.301351110482869
20
-66.098506362646859
10
60.301351110482848
20
-77.098506362646873
42
-0.41421356237309503
10
58.301351110482841
20
-79.098506362646873
10
47.301351110482834
20
-79.098506362646816
42
-0.41421356237309503
10
45.301351110482877
20
-77.098506362646873
10
45.301351110482841
20
-66.098506362646859
42
-0.41421356237309503
0
CIRCLE
5
102
100
AcDbEntity
8
0
100
AcDbCircle
10
56.001561879508472
20
-71.59850080051045
30
6.2172489379005623e-14
40
1.7500000000000002
210
-2.0194839173657902e-28
220
2.0194839173657902e-28
230
-1
0
CIRCLE
5
103
100
AcDbEntity
8
0
100
AcDbCircle
10
56.001561879504074
20
88.401488075222943
30
1.4210854715204919e-13
40
1.7500000000000002
210
-2.0194839173657902e-28
220
2.0194839173657902e-28
230
-1
0
CIRCLE
5
104
100
AcDbEntity
8
0
100
AcDbCircle
10
-191.49843967926753
20
85.90152796099855
30
-3.5083047578157077e-13
40
1.7499999999999702
210
-2.0194839173657902e-28
220
2.0194839173657902e-28
230
-1
0
CIRCLE
5
105
100
AcDbEntity
8
0
100
AcDbCircle
10
-191.49843967926654
20
-69.098504845393563
30
-3.8635761256964581e-13
40
1.7500000000000102
210
-4.0389678347315804e-28
220
2.0194839173657902e-28
230
-1
0
CIRCLE
5
106
100
AcDbEntity
8
0
100
AcDbCircle
10
-21.07264226516223
20
7.974064517605882
30
-8.8817841970038966e-15
40
10
210
-2.0194839173657902e-28
220
2.0194839173657902e-28
230
-1
0
CIRCLE
5
107
100
AcDbEntity
8
0
100
AcDbCircle
10
18.30765290777617
20
-21.614404215437059
30
-1.7319479184152139e-13
40
1.7500000000000102
210
-4.0389678347315804e-28
220
2.0194839173657902e-28
230
-1
0
CIRCLE
5
108
100
AcDbEntity
8
0
100
AcDbCircle
10
-61.692347092223834
20
-21.614404215437059
30
-8.437694987154118e-14
40
1.7500000000000102
210
-4.0389678347315804e-28
220
2.0194839173657902e-28
230
-1
0
CIRCLE
5
109
100
AcDbEntity
8
0
100
AcDbCircle
10
-141.69234709222354
20
-21.614404215437158
30
-1.9095836023558852e-13
40
1.7500000000000102
210
-4.0389678347315804e-28
220
2.0194839173657902e-28
230
-1
0
CIRCLE
5
110
100
AcDbEntity
8
0
100
AcDbCircle
10
-181.69234709222351
20
-41.614404215437162
30
-2.5757174171311811e-13
40
1.7500000000000102
210
-4.0389678347315804e-28
220
2.0194839173657902e-28
230
-1
0
CIRCLE
5
111
100
AcDbEntity
8
0
100
AcDbCircle
10
-141.69234709222354
20
-41.614404215437162
30
-2.486899575161007e-13
40
1.7500000000000102
210
-4.0389678347315804e-28
220
2.0194839173657902e-28
230
-1
0
CIRCLE
5
112
100
AcDbEntity
8
0
100
AcDbCircle
10
-61.692347092223834
20
-41.614404215437055
30
-3.5527136788038331e-14
40
1.7500000000000102
210
-4.0389678347315804e-28
220
2.0194839173657902e-28
230
-1
0
CIRCLE
5
113
100
AcDbEntity
8
0
100
AcDbCircle
10
18.30765290777617
20
-41.614404215436956
30
-1.3322676295501979e-13
40
1.7500000000000102
210
-4.0389678347315804e-28
220
2.0194839173657902e-28
230
-1
0
CIRCLE
5
114
100
AcDbEntity
8
0
100
AcDbCircle
10
58.307652907776173
20
-41.614404215436956
30
1.7319479184153957e-13
40
1.7500000000000102
210
-4.0389678347315804e-28
220
2.0194839173657902e-28
230
-1
0
CIRCLE
5
115
100
AcDbEntity
8
0
100
AcDbCircle
10
-21.69234709222383
20
-41.614404215436956
30
-1.3322676295503595e-13
40
1.7500000000000102
210
-4.0389678347315804e-28
220
2.0194839173657902e-28
230
-1
0
CIRCLE
5
116
100
AcDbEntity
8
0
100
AcDbCircle
10
-101.69234709222353
20
-41.614404215437055
30
5.3290705181958037e-14
40
1.7500000000000102
210
-4.0389678347315804e-28
220
2.0194839173657902e-28
230
-1
0
CIRCLE
5
117
100
AcDbEntity
8
0
100
AcDbCircle
10
-181.69234709222351
20
-21.614404215437158
30
-2.9309887850111908e-13
40
1.7500000000000102
210
-4.0389678347315804e-28
220
2.0194839173657902e-28
230
-1
0
CIRCLE
5
118
100
AcDbEntity
8
0
100
AcDbCircle
10
-101.69234709222353
20
-21.614404215437059
30
1.332267629545644e-14
40
1.7500000000000102
210
-4.0389678347315804e-28
220
2.0194839173657902e-28
230
-1
0
CIRCLE
5
119
100
AcDbEntity
8
0
100
AcDbCircle
10
-21.69234709222383
20
-21.614404215437059
30
2.664535259099063e-14
40
1.7500000000000102
210
-4.0389678347315804e-28
220
2.0194839173657902e-28
230
-1
0
CIRCLE
5
120
100
AcDbEntity
8
0
100
AcDbCircle
10
58.307652907776173
20
-21.614404215436956
30
1.376676550535386e-13
40
1.7500000000000102
210
-4.0389678347315804e-28
220
2.0194839173657902e-28
230
-1
0
CIRCLE
5
121
100
AcDbEntity
8
0
100
AcDbCircle
10
5.1962589349591504
20
65.12111382704515
30
-9.7699626166999576e-14
40
1.7500000000000002
210
-2.0194839173657902e-28
220
2.0194839173657902e-28
230
-1
0
CIRCLE
5
122
100
AcDbEntity
8
0
100
AcDbCircle
10
-134.80374106504053
20
65.12111382704515
30
-2.1316282072804414e-13
40
1.7499999999999902
210
-2.0194839173657902e-28
220
2.0194839173657902e-28
230
-1
0
CIRCLE
5
123
100
AcDbEntity
8
0
100
AcDbCircle
10
-123.69579619125855
20
13.590716731340041
30
-1.9984014443255042e-13
40
2.5
210
-2.0194839173657902e-28
220
2.0194839173657902e-28
230
-1
0
CIRCLE
5
124
100
AcDbEntity
8
0
100
AcDbCircle
10
-136.89580402384553
20
1.2907215279234925
30
-1.9984014443255557e-13
40
2.49999999999998
210
-2.0194839173657902e-28
220
2.0194839173657902e-28
230
-1
0
ENDSEC
0
SECTION
2
OBJECTS
0
DICTIONARY
5
C
100
AcDbDictionary
3
ACAD_GROUP
350
D
3
ACAD_MLINESTYLE
350
17
0
DICTIONARY
5
D
100
AcDbDictionary
0
DICTIONARY
5
1A
330
C
100
AcDbDictionary
0
DICTIONARY
5
17
100
AcDbDictionary
0
ENDSEC
0
EOF
