0
SECTION
2
HEADER
9
$INSUNITS
70
4
9
$ACADVER
1
AC1014
9
$HANDSEED
5
FFFF
0
ENDSEC
0
SECTION
2
TABLES
0
TABLE
2
VPORT
5
8
100
AcDbSymbolTable
0
ENDTAB
0
TABLE
2
LTYPE
5
5
100
AcDbSymbolTable
0
LTYPE
5
14
100
AcDbSymbolTableRecord
100
AcDbLinetypeTableRecord
2
BYBLOCK
70
0
0
LTYPE
5
15
100
AcDbSymbolTableRecord
100
AcDbLinetypeTableRecord
2
BYLAYER
70
0
0
ENDTAB
0
TABLE
2
LAYER
5
2
100
AcDbSymbolTable
70
2
0
LAYER
5
50
100
AcDbSymbolTableRecord
100
AcDbLayerTableRecord
2
0
70
0
6
CONTINUOUS
0
ENDTAB
0
TABLE
2
STYLE
5
3
100
AcDbSymbolTable
70
1
0
STYLE
5
11
100
AcDbSymbolTableRecord
100
AcDbTextStyleTableRecord
2
STANDARD
70
0
0
ENDTAB
0
TABLE
2
VIEW
5
6
100
AcDbSymbolTable
70
0
0
ENDTAB
0
TABLE
2
UCS
5
7
100
AcDbSymbolTable
70
0
0
ENDTAB
0
TABLE
2
APPID
5
9
100
AcDbSymbolTable
70
2
0
APPID
5
12
100
AcDbSymbolTableRecord
100
AcDbRegAppTableRecord
2
ACAD
70
0
0
ENDTAB
0
TABLE
2
DIMSTYLE
5
A
100
AcDbSymbolTable
70
1
0
ENDTAB
0
TABLE
2
BLOCK_RECORD
5
1
100
AcDbSymbolTable
70
1
0
BLOCK_RECORD
5
1F
100
AcDbSymbolTableRecord
100
AcDbBlockTableRecord
2
*MODEL_SPACE
0
BLOCK_RECORD
5
1B
100
AcDbSymbolTableRecord
100
AcDbBlockTableRecord
2
*PAPER_SPACE
0
ENDTAB
0
ENDSEC
0
SECTION
2
BLOCKS
0
BLOCK
5
20
100
AcDbEntity
100
AcDbBlockBegin
2
*MODEL_SPACE
0
ENDBLK
5
21
100
AcDbEntity
100
AcDbBlockEnd
0
BLOCK
5
1C
100
AcDbEntity
100
AcDbBlockBegin
2
*PAPER_SPACE
0
ENDBLK
5
1D
100
AcDbEntity
100
AcDbBlockEnd
0
ENDSEC
0
SECTION
2
ENTITIES
0
LWPOLYLINE
5
100
100
AcDbEntity
8
0
100
AcDbPolyline
90
10
70
1
43
0.0
10
-101.76505773833286
20
-97.653183251647718
10
-101.76505552095655
20
113.34682116279075
10
-250.465060796888
20
113.3468211627908
42
0.41421356237312756
10
-254.465060724533
20
109.34682123514648
10
-254.4650607245332
20
28.896820885320604
42
0.41421356237313534
10
-250.46506079688797
20
24.896820957675985
10
-204.51505868090794
20
24.896820957675541
42
-0.41421356237310336
10
-199.51505877135168
20
19.896821048120135
10
-199.51505877135205
20
-93.653183324003209
42
0.41421356237315876
10
-195.51505884370715
20
-97.653183251648258
0
LWPOLYLINE
5
101
100
AcDbEntity
8
0
100
AcDbPolyline
90
8
70
1
43
0.0
10
-118.89997419650861
20
17.199986808040215
10
-118.89997454479904
20
0.19998711555058765
42
-0.41421356237309681
10
-121.89997455199557
20
-2.8000127687197987
10
-138.89997424448518
20
-2.8000124204293
42
-0.41421356237310114
10
-141.89997412875556
20
0.19998758676737727
10
-141.89997378046473
20
17.199987279256597
42
-0.41421356237307599
10
-138.89997377326841
20
20.199987163526973
10
-121.89997408077895
20
20.199986815236702
42
-0.41421356237309287
0
CIRCLE
5
102
100
AcDbEntity
8
0
100
AcDbCircle
10
131.26505531529722
20
81.346821741634002
30
1.0385703839849715e-07
40
2.6500000000000106
210
1.0582075858764471e-19
220
-7.780164511948048e-21
230
-1
0
CIRCLE
5
103
100
AcDbEntity
8
0
100
AcDbCircle
10
130.39997446482528
20
-6.0500125357857284
30
1.038568205518798e-07
40
1.7500000000000102
210
1.0582075858763238e-19
220
-7.780164511948048e-21
230
-1
0
CIRCLE
5
104
100
AcDbEntity
8
0
100
AcDbCircle
10
130.39997386043854
20
23.449986930593049
30
1.0385682216364583e-07
40
1.7500000000000102
210
1.0582075858763238e-19
220
-7.780164511948048e-21
230
-1
0
CIRCLE
5
105
100
AcDbEntity
8
0
100
AcDbCircle
10
241.88864333761273
20
87.896841418021239
30
1.0385689639892623e-07
40
2.6500000000000106
210
1.0582075858764471e-19
220
-7.780164511948048e-21
230
-1
0
CIRCLE
5
106
100
AcDbEntity
8
0
100
AcDbCircle
10
241.88864430258042
20
40.796842270006067
30
1.0385689789797396e-07
40
2.6500000000000106
210
1.0582075858764471e-19
220
-7.780164511948048e-21
230
-1
0
CIRCLE
5
107
100
AcDbEntity
8
0
100
AcDbCircle
10
194.78864418959787
20
87.896840453053926
30
1.0385690836482487e-07
40
2.6500000000000106
210
1.0582075858764471e-19
220
-7.780164511948048e-21
230
-1
0
CIRCLE
5
108
100
AcDbEntity
8
0
100
AcDbCircle
10
194.78864515456561
20
40.796841305038768
30
1.0385690986387259e-07
40
2.6500000000000106
210
1.0582075858764471e-19
220
-7.780164511948048e-21
230
-1
0
CIRCLE
5
109
100
AcDbEntity
8
0
100
AcDbCircle
10
202.83864420890464
20
79.846840763587025
30
1.0385699125388073e-07
40
1.6499999999999901
210
1.058207585876385e-19
220
-7.780164511948045e-21
230
-1
0
CIRCLE
5
110
100
AcDbEntity
8
0
100
AcDbCircle
10
233.8386436481498
20
79.84684076358721
30
1.0385703844659295e-07
40
1.6499999999999901
210
1.058207585876385e-19
220
-7.780164511948045e-21
230
-1
0
CIRCLE
5
111
100
AcDbEntity
8
0
100
AcDbCircle
10
202.83864420890581
20
48.846841482702445
30
1.0385695782179699e-07
40
1.6499999999999901
210
1.058207585876385e-19
220
-7.780164511948045e-21
230
-1
0
CIRCLE
5
112
100
AcDbEntity
8
0
100
AcDbCircle
10
218.33864424607927
20
64.346841361516255
30
1.0385699813419573e-07
40
12.000000000000002
210
1.0582075858762617e-19
220
-7.780164511948045e-21
230
-1
0
CIRCLE
5
113
100
AcDbEntity
8
0
100
AcDbCircle
10
233.83864364815071
20
48.846841324341838
30
1.0385700501450906e-07
40
1.6499999999999901
210
1.058207585876385e-19
220
-7.780164511948045e-21
230
-1
0
CIRCLE
5
114
100
AcDbEntity
8
0
100
AcDbCircle
10
109.7650575095511
20
-89.653181633271188
30
1.0385682015581487e-07
40
2.7500000000000204
210
1.0582075858763854e-19
220
-7.780164511941885e-21
230
-1
0
CIRCLE
5
115
100
AcDbEntity
8
0
100
AcDbCircle
10
109.7650554603173
20
105.34681829727157
30
1.0385685394877862e-07
40
2.7500000000000204
210
1.0582075858763854e-19
220
-7.780164511941885e-21
230
-1
0
CIRCLE
5
116
100
AcDbEntity
8
0
100
AcDbCircle
10
191.51505668594044
20
105.34681988876096
30
1.0385692181216759e-07
40
2.7500000000000204
210
1.0582075858764466e-19
220
-7.780164511935719e-21
230
-1
0
CIRCLE
5
117
100
AcDbEntity
8
0
100
AcDbCircle
10
191.51505585562577
20
-20.054459812162861
30
1.0385690323637908e-07
40
2.75
210
1.0582075858763854e-19
220
-7.780164511948048e-21
230
-1
0
CIRCLE
5
118
100
AcDbEntity
8
0
100
AcDbCircle
10
165.5150560307878
20
-89.65318110059178
30
1.0385689390226117e-07
40
2.7500000000000204
210
1.0582075853654126e-19
220
-7.7801645990678712e-21
230
-1
0
ENDSEC
0
SECTION
2
OBJECTS
0
DICTIONARY
5
C
100
AcDbDictionary
3
ACAD_GROUP
350
D
3
ACAD_MLINESTYLE
350
17
0
DICTIONARY
5
D
100
AcDbDictionary
0
DICTIONARY
5
1A
330
C
100
AcDbDictionary
0
DICTIONARY
5
17
100
AcDbDictionary
0
ENDSEC
0
EOF
